<?xml version="1.0" encoding="utf-8"?>
<svg id="master-artboard" viewBox="0 0 2800 1902.62109375" version="1.1" xmlns="http://www.w3.org/2000/svg" x="0px" y="0px" enable-background="new 0 0 2800 2800" width="2800px" height="1902.62109375px" xmlns:xlink="http://www.w3.org/1999/xlink"><rect id="ee-background" x="0" y="0" width="2800" height="1902.62109375" style="fill: white; fill-opacity: 0; pointer-events: none;"/>
<defs>
			<path d="M 0 0 H 2800 V 2800 H 0 V 0 Z" id="SVGID_1_"/>
		</defs><clipPath id="SVGID_2_">
			<use overflow="visible" xlink:href="#SVGID_1_"/>
		</clipPath><path fill="#CDE4C9" d="M-65.7,927c0,0,209.3-15.5,275.3-51.5c66-36,281.9-150,329.9-138C587.5,749.5,861,961,917,1001&#10;&#9;&#9;&#9;&#9;s195.1,20,201.5,28s192,117,277.2,178.5c0,0,150-46.5,243.6-94.5S1933,925,1969,929s189.8,68,189.8,68S2441,825.8,2513,811.4&#10;&#9;&#9;&#9;&#9;s160,6.4,192,0S2881,589,2881,589v1250H566.1h-746.2L-65.7,927z" transform="matrix(1, 0, 0, 1, 2.2737367544323206e-13, -489.47935745173703)"/>
<rect id="ee-background" x="0" y="0" width="2800" height="1902.62109375" style="fill: white; fill-opacity: 0; pointer-events: none;"/><g transform="matrix(28.990302764497756, 0, 0, 7.1676817217955255, -1730.95257117461, 924.941472600403)"><g id="g-1" transform="matrix(1, 0, 0, 1, 0, 0)">
	<g id="g-2">
		<path class="st0" d="M58,49h100v100H58V49z" style="fill: rgb(205, 228, 201);"/>
	</g>
</g></g></svg>