<?xml version="1.0" encoding="utf-8"?>
<svg id="master-artboard" viewBox="0 0 2800 1902.62109375" version="1.1" xmlns="http://www.w3.org/2000/svg" x="0px" y="0px" enable-background="new 0 0 2800 2800" width="2800px" height="1902.62109375px" xmlns:xlink="http://www.w3.org/1999/xlink"><rect id="ee-background" x="0" y="0" width="2800" height="1902.62109375" style="fill: white; fill-opacity: 0; pointer-events: none;"/>
<defs>
			<path d="M 0 0 H 2800 V 2800 H 0 V 0 Z" id="SVGID_1_"/>
		</defs><clipPath id="SVGID_2_">
			<use overflow="visible" xlink:href="#SVGID_1_"/>
		</clipPath><path fill="#E0ECDB" d="M2881,811.4c0,0-265.9-187.9-307.9-193.9c-42-6-305.9-222-347.9-222s-114,152.5-132,157.2&#10;&#9;&#9;&#9;&#9;c-18,4.7-144,24.7-174,50.7c-30,26-204,278-228,296c-24,18-204-62.1-222-88c-18-25.9-281.5-161.3-287.7-162.6&#10;&#9;&#9;&#9;&#9;c-6.2-1.3-66.2,40.7-156.2,94.7c0,0-395.9-299.9-419.9-305.9s-246,211.3-246,211.3H-48.3v749.3h2969.4L2881,811.4z" transform="matrix(1, 0, 0, 1, 2.2737367544323206e-13, -372.2082613955917)" style="fill: rgb(224, 236, 219);"/>
<rect id="ee-background" x="0" y="0" width="2800" height="1902.62109375" style="fill: white; fill-opacity: 0; pointer-events: none;"/><g transform="matrix(28.684377670288086, 0, 0, 28.684377670288086, -1713.2087812725224, -453.14675489065587)"><g id="g-3" transform="matrix(1, 0, 0, 1, 0, 0)">
	<g id="g-4">
		<path class="st0" d="M58,49h100v100H58V49z" style="fill: rgb(224, 236, 219);"/>
	</g>
</g></g></svg>